Subject : Spartacus Gods of The Arena Complete 720p Bluray (2011)


Size : 13.5 GB


Spoken Language : English


Subtitles : English(srt files) & Korean(smi files)


Contents :

Spartacus.Gods.of.the.Arena.Part01.720p.BluRay.X264-WIND.mkv ~ Spartacus.Gods.of.the.Arena.Part06.720p.BluRay.X264-WIND.mkv




Release Groups Information :

Spartacus.Gods.of.the.Arena.Part01.720p.BluRay.X264-WIND
Spartacus.Gods.of.the.Arena.Part02.720p.BluRay.X264-WIND
Spartacus.Gods.of.the.Arena.Part03.720p.BluRay.X264-WIND
Spartacus.Gods.of.the.Arena.Part04.720p.BluRay.X264-WIND
Spartacus.Gods.of.the.Arena.Part05.720p.BluRay.X264-WIND

Spartacus.Gods.of.the.Arena.Part06.720p.BluRay.X264-WIND



Files Information :

Spartacus.Gods.of.the.Arena.Part01-06.720p.BluRay.X264-WIND
   Video #1
      Format : AVC
      Format/Info : Advanced Video Codec
      Format profile : High@L4.1
      Format settings, CABAC : Yes
      Format settings, ReFrames : 8 frames
      Codec ID : V_MPEG4/ISO/AVC
      Width : 1 280 pixels
      Height : 720 pixels
      Display aspect ratio : 16:9
      Frame rate : 23.976 fps
      Color space : YUV
      Chroma subsampling : 4:2:0
      Bit depth : 8 bits
      Scan type : Progressive
      Writing library : x264 core 116 r2057 0ba8a9c
      Language : English
Audio #2
      ID : 2
      Format : AC-3
      Format/Info : Audio Coding 3
      Mode extension : CM (complete main)
      Codec ID : A_AC3
      Bit rate mode : Constant
      Bit rate : 640 Kbps
      Channel(s) : 6 channels
      Channel positions : Front: L C R, Side: L R, LFE
      Sampling rate : 48.0 KHz
      Bit depth : 16 bits
      Compression mode : Lossy
      Title : English AC3 640kbps
      Language : English



Spartacus.Gods.of.the.Arena.Part01.720p.BluRay.X264-WIND
   General
      Complete name : Spartacus.Gods.of.the.Arena.Part01.720p.BluRay.X264-WIND.mkv
      Format : Matroska
      File size : 2.19 GiB
      Duration : 52mn 48s
      Overall bit rate : 5 926 Kbps
      Writing application : mkvmerge v4.1.1 ('Bouncin' Back') built on Jul  3 2010 22:54:08
      Writing library : libebml v1.0.0 + libmatroska v1.0
   Video #1
      Duration : 52mn 48s
      Bit rate : 5 285 Kbps
      Bits/(Pixel*Frame) : 0.239
      Stream size : 1.91 GiB (87%)
   Audio #2
      Duration : 52mn 48s
      Stream size : 242 MiB (11%)



Spartacus.Gods.of.the.Arena.Part02.720p.BluRay.X264-WIND
   General
      Complete name : Spartacus.Gods.of.the.Arena.Part02.720p.BluRay.X264-WIND.mkv
      Format : Matroska
      File size : 2.19 GiB
      Duration : 54mn 9s
      Overall bit rate : 5 778 Kbps
      Writing application : mkvmerge v4.1.1 ('Bouncin' Back') built on Jul  3 2010 22:54:08
      Writing library : libebml v1.0.0 + libmatroska v1.0
   Video #1
      Duration : 54mn 9s
      Bit rate : 5 137 Kbps
      Bits/(Pixel*Frame) : 0.232
      Stream size : 1.90 GiB (87%)
   Audio #2
      Duration : 54mn 9s
      Stream size : 248 MiB (11%)



Spartacus.Gods.of.the.Arena.Part03.720p.BluRay.X264-WIND
   General
      Complete name : Spartacus.Gods.of.the.Arena.Part03.720p.BluRay.X264-WIND.mkv
      Format : Matroska
      File size : 2.19 GiB
      Duration : 58mn 45s
      Overall bit rate : 5 326 Kbps
      Writing application : mkvmerge v4.1.1 ('Bouncin' Back') built on Jul  3 2010 22:54:08
      Writing library : libebml v1.0.0 + libmatroska v1.0
   Video #1
      Duration : 58mn 45s
      Bit rate : 4 684 Kbps
      Bits/(Pixel*Frame) : 0.212
      Stream size : 1.88 GiB (86%)
   Audio #2
      Duration : 58mn 45s
      Stream size : 269 MiB (12%)



Spartacus.Gods.of.the.Arena.Part04.720p.BluRay.X264-WIND
   General
      Complete name : Spartacus.Gods.of.the.Arena.Part04.720p.BluRay.X264-WIND.mkv
      Format : Matroska
      File size : 2.19 GiB
      Duration : 52mn 48s
      Overall bit rate : 5 926 Kbps
      Writing application : mkvmerge v4.1.1 ('Bouncin' Back') built on Jul  3 2010 22:54:08
      Writing library : libebml v1.0.0 + libmatroska v1.0
   Video #1
      Duration : 52mn 48s
      Bit rate : 5 285 Kbps
      Bits/(Pixel*Frame) : 0.239
      Stream size : 1.91 GiB (87%)
   Audio #2
      Duration : 52mn 48s
      Stream size : 242 MiB (11%)



Spartacus.Gods.of.the.Arena.Part05.720p.BluRay.X264-WIND
   General
      Complete name : Spartacus.Gods.of.the.Arena.Part05.720p.BluRay.X264-WIND.mkv
      Format : Matroska
      File size : 2.19 GiB
      Duration : 57mn 7s
      Overall bit rate : 5 479 Kbps
      Writing application : mkvmerge v4.1.1 ('Bouncin' Back') built on Jul  3 2010 22:54:08
      Writing library : libebml v1.0.0 + libmatroska v1.0
   Video #1
      Duration : 57mn 7s
      Bit rate : 4 837 Kbps
      Bits/(Pixel*Frame) : 0.219
      Stream size : 1.89 GiB (86%)
   Audio #2
      Duration : 57mn 7s
      Stream size : 261 MiB (12%)



Spartacus.Gods.of.the.Arena.Part06.720p.BluRay.X264-WIND
   General
      Complete name : Spartacus.Gods.of.the.Arena.Part06.720p.BluRay.X264-WIND.mkv
      Format : Matroska
      File size : 2.65 GiB
      Duration : 1h 8mn
      Overall bit rate : 5 563 Kbps
      Writing application : mkvmerge v4.1.1 ('Bouncin' Back') built on Jul  3 2010 22:54:08
      Writing library : libebml v1.0.0 + libmatroska v1.0
   Video #1
      Duration : 1h 8mn
      Bit rate : 4 921 Kbps
      Bits/(Pixel*Frame) : 0.223
      Stream size : 2.29 GiB (87%)
   Audio #2
      Duration : 1h 8mn
      Stream size : 312 MiB (12%)




-----------------------------------------------------------------------------------



DO ENJOY IT !!!

Special thanks to all the original uploaders and release groups.